<svg width="217" height="102" viewBox="0 0 217 102" fill="none" xmlns="http://www.w3.org/2000/svg">
    <path d="M6.14158 29.0617C7.38404 29.443 7.5064 30.7288 7.72591 31.7013C9.10515 37.5228 10.6709 43.303 11.6771 49.2071C13.7857 61.3587 15.5834 73.5792 17.5608 85.6869C17.7182 86.6732 17.9377 87.6458 18.2883 88.6622C19.3104 84.0595 19.5661 79.4076 20.6572 74.8625C20.9748 74.8651 21.2303 74.8815 21.548 74.8841C21.6849 75.6561 21.953 76.472 21.9034 77.2853C21.4311 83.6628 20.9034 90.1254 20.3067 96.5304C20.089 98.9126 18.8864 99.6166 17.1825 98.3893C15.8857 97.4365 14.6928 96.2419 13.6242 95.0198C11.3356 92.3172 9.1024 89.5295 6.86916 86.7418C5.42179 84.8742 5.39459 84.5884 5.316 81.7612C9.49796 83.6797 11.2862 88.4624 14.7969 91.3319C14.7707 90.3895 14.8892 89.6338 14.7591 88.9332C11.894 70.1657 9.0357 51.4697 6.1706 32.7022C5.99967 31.573 5.38673 30.4688 6.14158 29.0617Z" fill="white"/>
    <path d="M64.3408 13.545C65.7192 14.3551 65.7114 15.9496 65.8509 17.1912C66.7603 24.6411 67.888 32.093 68.3609 39.5389C69.3772 54.8742 70.0298 70.2061 70.9011 85.4514C70.9678 86.6923 71.1072 87.9338 71.3917 89.2653C73.0911 83.9658 73.9186 78.3924 75.6903 73.1821C76.0536 73.2741 76.3442 73.3654 76.7075 73.4573C76.7755 74.4324 76.9886 75.4975 76.8383 76.4706C75.5642 84.0774 74.217 91.772 72.7974 99.3775C72.2743 102.207 70.8166 102.725 69.0073 100.76C67.6323 99.2409 66.4042 97.4577 65.3215 95.6758C63.0125 91.7565 60.7766 87.7492 58.5407 83.7419C57.0987 81.0709 57.1004 80.7165 57.3355 77.2638C61.9021 80.7612 63.3992 87.0649 67.088 91.5286C67.1664 90.3777 67.389 89.4938 67.3205 88.6073C66.199 65.0323 65.077 41.5459 63.9554 17.9709C63.8896 16.5528 63.3149 15.0415 64.3408 13.545Z" fill="white"/>
    <path d="M110.218 0.818365C111.537 1.88402 111.423 3.68249 111.479 5.09884C111.888 13.6057 112.514 22.1388 112.487 30.5931C112.475 48.01 112.101 65.3831 111.951 82.6826C111.934 84.0902 111.99 85.5066 112.185 87.0403C114.233 81.2468 115.43 75.0484 117.545 69.3635C117.901 69.5072 118.184 69.6422 118.54 69.7859C118.543 70.8937 118.684 72.119 118.469 73.2006C116.691 81.6445 114.833 90.1796 112.91 98.606C112.199 101.742 110.712 102.166 109.04 99.7492C107.77 97.8842 106.665 95.737 105.705 93.6073C103.666 88.9307 101.705 84.163 99.7437 79.3952C98.4848 76.2226 98.5102 75.8229 98.9754 71.9524C103.294 76.401 104.365 83.6789 107.743 89.1214C107.898 87.8313 108.179 86.8584 108.17 85.8505C108.628 59.1238 109.08 32.4971 109.538 5.7704C109.567 4.16298 109.095 2.39433 110.218 0.818365Z" fill="white"/>
    <path d="M159.723 5.16153C160.745 6.43681 160.473 8.11128 160.384 9.45977C159.907 17.5738 159.613 25.757 158.77 33.7327C157.071 50.1722 155.066 66.4965 153.26 82.797C153.109 84.1224 153.019 85.4709 153.037 86.9585C155.346 81.9071 156.969 76.3 159.324 71.3647C159.614 71.573 159.842 71.7583 160.132 71.9665C160.027 73.0129 160.029 74.1984 159.74 75.1756C157.404 82.784 154.992 90.4624 152.533 98.0248C151.623 100.84 150.313 100.937 149.121 98.3144C148.219 96.2949 147.485 94.0424 146.872 91.836C145.586 87.0051 144.375 82.1041 143.165 77.2032C142.399 73.9513 142.459 73.5792 143.232 70.0203C146.484 75.1008 146.692 82.1899 149.046 88.017C149.303 86.8307 149.637 85.9696 149.728 85.0163C152.711 59.879 155.679 34.8349 158.662 9.69763C158.843 8.18613 158.612 6.42023 159.723 5.16153Z" fill="white"/>
    <path d="M206.498 28.9953C207.42 30.3018 207.077 31.5009 206.926 32.508C206.072 38.5874 205.392 44.7785 204.193 50.6347C201.759 62.7174 199.036 74.6141 196.505 86.5557C196.296 87.5255 196.144 88.5326 196.088 89.6807C198.556 86.5396 200.39 82.7521 202.897 79.7148C203.165 79.9675 203.377 80.1829 203.645 80.4356C203.493 81.2056 203.437 82.1166 203.112 82.7749C200.494 87.8713 197.799 92.9971 195.066 98.0191C194.053 99.8903 192.788 99.5458 191.768 97.15C190.998 95.3105 190.401 93.3456 189.919 91.4552C188.916 87.3333 187.989 83.1821 187.063 79.0309C186.484 76.2882 186.56 76.0217 187.476 73.5353C190.359 78.4776 190.214 83.9887 192.197 89.2173C192.502 88.3885 192.865 87.8339 192.998 87.1306C197.091 68.7782 201.165 50.4924 205.257 32.14C205.505 31.037 205.368 29.6068 206.498 28.9953Z" fill="white"/>
</svg>
